# xmcd CD database file generated by Grip 2.91
# 
# Track frame offsets:
#       150
#       16137
#       35340
#       51595
#       67867
#       96670
#       117310
#       133727
#       150352
#       170735
#       185687
# 
# Disc length: 2872 seconds
# 
# Revision: 3
# Processed by: cddbd v1.4b41PL1 Copyright (c) Steve Scherf et al.
# Submitted via: Grip 2.91
# 
DISCID=970b360b
DTITLE=Sonny Landreth - South Of I-10
DYEAR=1900
DGENRE=
TTITLE0=Shootin' For The Moon
TTITLE1=Creole Angel
TTITLE2=Native Stepson
TTITLE3=Orphans of the Motherland
TTITLE4=Congo Square
TTITLE5=Turning Wheel
TTITLE6=South Of I-10
TTITLE7=Cajun Waltz
TTITLE8=Mojo Boogie
TTITLE9=C'est Chaud
TTITLE10=Great Gulf Wind
EXTD=
EXTT0=
EXTT1=
EXTT2=
EXTT3=
EXTT4=
EXTT5=
EXTT6=
EXTT7=
EXTT8=
EXTT9=
EXTT10=
PLAYORDER=
